/vscmnt/brussel_pixiu_data/_data_brussel/112/vsc11236/PredSimResults/SUBJ07mtu3D/worker1.mot
version=1
nRows=8
nColumns=50
inDegrees=yes
endheader
                time	         pelvis_tilt	         pelvis_list	     pelvis_rotation	           pelvis_tx	           pelvis_ty	           pelvis_tz	       hip_flexion_r	     hip_adduction_r	      hip_rotation_r	        knee_angle_r	       ankle_angle_r	         mtp_angle_r	       hip_flexion_l	     hip_adduction_l	      hip_rotation_l	        knee_angle_l	       ankle_angle_l	         mtp_angle_l	    lumbar_extension	      lumbar_bending	     lumbar_rotation	 ercspn_r/activation	 intobl_r/activation	 extobl_r/activation	    abd_r/activation	    add_r/activation	hamstrings_r/activation	bifemsh_r/activation	glut_max_r/activation	iliopsoas_r/activation	rect_fem_r/activation	  vasti_r/activation	gastroc_r/activation	 soleus_r/activation	tib_ant_r/activation	 ercspn_l/activation	 intobl_l/activation	 extobl_l/activation	    abd_l/activation	    add_l/activation	hamstrings_l/activation	bifemsh_l/activation	glut_max_l/activation	iliopsoas_l/activation	rect_fem_l/activation	  vasti_l/activation	gastroc_l/activation	 soleus_l/activation	tib_ant_l/activation	
          0.00000000	         -3.66405743	          0.25435615	          7.74071905	          0.00000000	          0.85053696	         -0.01216421	         29.78655494	         -2.22009533	         -3.46681731	         -7.41162822	          3.37683548	          0.26819890	        -14.95485484	          0.72014859	          3.90366230	         -8.74993427	          7.96240509	         27.62379393	        -10.76603272	         -2.04512389	         -0.99670281	          0.12950644	          0.13763538	          0.01000001	          0.01756364	          0.13241341	          0.05913567	          0.07203294	          0.08756651	          0.01912642	          0.01183048	          0.01000000	          0.01000000	          0.00999999	          0.38493409	          0.13487638	          0.00999999	          0.01000000	          0.03601894	          0.01000001	          0.01442470	          0.13598663	          0.01655789	          0.14988739	          0.01183049	          0.01000005	          0.11899549	          0.27938222	          0.01958887	
          0.01098289	         -3.66884028	          0.29461135	          7.76456307	          0.01562968	          0.84912521	         -0.01193427	         29.45915863	         -2.00391071	         -3.05885877	         -8.68221041	          3.06670340	          0.25113630	        -15.39099826	          0.65955593	          3.58230575	         -9.82721127	          7.01771732	         29.20062821	        -10.66261535	         -1.65120139	         -1.23507950	          0.10946845	          0.12152809	          0.00999999	          0.01520892	          0.11192564	          0.05930256	          0.09039262	          0.13427405	          0.01616707	          0.01000001	          0.01000000	          0.01628778	          0.01183047	          0.41450836	          0.14927265	          0.00999999	          0.01000001	          0.03044588	          0.02203794	          0.01219314	          0.11494599	          0.01399596	          0.12669594	          0.01000002	          0.00999999	          0.10058381	          0.26170058	          0.01655796	
          0.02196578	         -3.66703504	          0.33525540	          7.74018563	          0.03140470	          0.84791924	         -0.01162127	         29.07412440	         -1.84146596	         -2.67967926	         -9.90030355	          2.68035433	          0.24770076	        -15.68501916	          0.61202169	          3.22092158	        -11.17595742	          5.96276576	         30.72085968	        -10.55196687	         -1.25726545	         -1.46663113	          0.14487074	          0.10272456	          0.01000000	          0.10210186	          0.13114114	          0.05559242	          0.08892657	          0.13139792	          0.01366561	          0.01000000	          0.00999999	          0.01376764	          0.00999999	          0.47268535	          0.16170876	          0.00999999	          0.01000000	          0.02573512	          0.01862811	          0.01030678	          0.09716087	          0.01183042	          0.10709281	          0.01000009	          0.01000000	          0.08502090	          0.23971287	          0.01399602	
          0.03294866	         -3.66021965	          0.39382741	          7.67158142	          0.04713819	          0.84707845	         -0.01121332	         28.71464431	         -1.69975921	         -2.37486053	        -11.14271978	          2.23780127	          0.22913763	        -15.75412278	          0.59628219	          2.83265835	        -12.91315586	          4.77645899	         32.12735727	        -10.45471125	         -0.88344219	         -1.69017120	          0.15258234	          0.08683041	          0.00999999	          0.14694389	          0.15710508	          0.04898322	          0.07516734	          0.15242857	          0.01155119	          0.01000000	          0.01000000	          0.01163743	          0.00999999	          0.49519411	          0.19564187	          0.00999999	          0.01000000	          0.02175323	          0.02243393	          0.01129200	          0.08212758	          0.01000001	          0.09052279	          0.01000006	          0.01000002	          0.07186597	          0.20778524	          0.01183047	
          0.04393155	         -3.64862339	          0.46222422	          7.56477324	          0.06270014	          0.84672459	         -0.01071734	         28.43386235	         -1.56439405	         -2.12185719	        -12.54659080	          2.00658003	          0.21084407	        -15.52460943	          0.60355037	          2.42153733	        -15.14701920	          3.47957999	         33.27665383	        -10.37853774	         -0.52241049	         -1.90462603	          0.16100242	          0.07339550	          0.00999999	          0.18271862	          0.18088153	          0.04756418	          0.06353702	          0.17026942	          0.01000000	          0.01000000	          0.03150496	          0.01000000	          0.01000000	          0.50015718	          0.22840312	          0.00999999	          0.01000000	          0.01838744	          0.04745306	          0.01067293	          0.06942032	          0.01000000	          0.07651658	          0.01000001	          0.01000000	          0.06074644	          0.17563549	          0.00999999	
          0.05491444	         -3.63376474	          0.53880648	          7.42066846	          0.07800310	          0.84697348	         -0.01014909	         28.19419839	         -1.43532515	         -1.92075708	        -14.02856494	          2.00439400	          0.19196728	        -14.92797633	          0.63267607	          1.97599568	        -17.97511855	          2.08779310	         33.95773811	        -10.32530142	         -0.17444305	         -2.10675068	          0.16492112	          0.06203932	          0.00999999	          0.20281506	          0.20122640	          0.04765070	          0.05370621	          0.17766273	          0.01000000	          0.01000000	          0.05830692	          0.01000001	          0.01000000	          0.48183826	          0.25018669	          0.00999999	          0.01000000	          0.01554243	          0.07634296	          0.01154823	          0.05867921	          0.00999999	          0.06467749	          0.01000001	          0.00999999	          0.05134740	          0.14846014	          0.00999999	
          0.06589733	         -3.61727995	          0.62238388	          7.23985814	          0.09301805	          0.84786686	         -0.00952777	         27.91715750	         -1.30909246	         -1.75761694	        -15.43845126	          2.22369694	          0.17780805	        -13.91932149	          0.67764190	          1.49527173	        -21.44798254	          0.56508510	         34.00132540	        -10.29055613	          0.16050434	         -2.29277324	          0.16243046	          0.05244023	          0.00999999	          0.20808060	          0.21129618	          0.04861036	          0.04539648	          0.17808610	          0.01000000	          0.01000000	          0.07677828	          0.01000000	          0.00999999	          0.44818126	          0.25633641	          0.00999999	          0.01000000	          0.01313761	          0.10018056	          0.01188439	          0.04960002	          0.00999999	          0.05467021	          0.01000000	          0.00999999	          0.04340263	          0.12548952	          0.00999999	
          0.07688022	         -3.60070679	          0.70882945	          7.02344193	          0.10774423	          0.84935049	         -0.00886571	         27.53919746	         -1.17870567	         -1.60940111	        -16.64948166	          2.61750900	          0.17725310	        -12.49001667	          0.72602760	          1.00270808	        -25.51854881	         -1.24672184	         33.41007336	        -10.26886562	          0.48526635	         -2.45939682	          0.13729834	          0.04432637	          0.00999999	          0.20128798	          0.21127730	          0.05404711	          0.03837249	          0.16566805	          0.01000000	          0.01000000	          0.10213294	          0.01000000	          0.00999999	          0.40407219	          0.26426616	          0.00999999	          0.01000000	          0.01110489	          0.11611075	          0.01004649	          0.04192562	          0.00999999	          0.04621132	          0.01000000	          0.00999999	          0.03668712	          0.10607304	          0.00999999	
